<?xml version="1.0"?>
<svg version="1.1" xmlns="http://www.w3.org/2000/svg" width="400px" height="200px" style="border: dashed 2px #aaa"><path fill="#" d="M51.34033203125,113.86474609375q0-1.58203125,0.406494140625-3.175048828125t1.263427734375-2.8564453125t2.186279296875-2.054443359375t3.131103515625-0.791015625q0.76904296875,0,1.69189453125,0.186767578125t1.702880859375,0.59326171875t1.318359375,1.0546875t0.538330078125,1.593017578125q0,0.59326171875-0.3076171875,0.791015625t-0.81298828125,0.19775390625l-0.15380859375-0.2197265625t-0.428466796875-0.560302734375t-0.582275390625-0.72509765625t-0.59326171875-0.648193359375q-0.90087890625-0.90087890625-1.69189453125-0.966796875l-0.17578125,0q-0.6591796875,0-1.23046875,0.3955078125q-0.63720703125,0.4833984375-1.131591796875,1.3623046875t-0.823974609375,1.86767578125t-0.516357421875,1.99951171875t-0.186767578125,1.669921875q0,0.90087890625,0.208740234375,2.054443359375t0.703125,2.186279296875t1.25244140625,1.73583984375t1.944580078125,0.703125q1.07666015625,0,1.95556640625-0.52734375t1.680908203125-1.175537109375t1.571044921875-1.16455078125t1.58203125-0.516357421875q0.3515625,0,0.714111328125,0.087890625t0.362548828125,0.46142578125l0,0.1318359375q-0.3955078125,1.03271484375-1.34033203125,1.82373046875t-2.120361328125,1.373291015625t-2.43896484375,0.867919921875t-2.252197265625,0.28564453125q-1.845703125,0-3.240966796875-0.604248046875t-2.318115234375-1.658935546875t-1.395263671875-2.537841796875t-0.472412109375-3.240966796875z M70.075756835938,114.7216796875q0-1.25244140625,0.318603515625-2.581787109375t1.0107421875-2.39501953125t1.746826171875-1.73583984375t2.548828125-0.670166015625q1.12060546875,0,2.362060546875,0.384521484375t2.274169921875,1.0986328125t1.680908203125,1.746826171875t0.648193359375,2.30712890625q0,1.5380859375-0.560302734375,2.92236328125t-1.571044921875,2.471923828125t-2.362060546875,1.7138671875t-2.933349609375,0.626220703125q-1.29638671875,0-2.26318359375-0.472412109375t-1.614990234375-1.263427734375t-0.966796875-1.86767578125t-0.318603515625-2.28515625z M73.305737304688,114.677734375q0,0.3955078125,0.120849609375,1.16455078125t0.362548828125,1.505126953125t0.626220703125,1.2744140625t0.933837890625,0.494384765625q1.16455078125-0.1318359375,1.922607421875-0.758056640625t1.23046875-1.527099609375t0.6591796875-1.95556640625t0.186767578125-1.99951171875q0-1.20849609375-0.472412109375-2.021484375t-1.549072265625-1.318359375q0,0.0439453125,0.0439453125,0.0439453125t0.0439453125-0.0439453125l-0.54931640625-0.1318359375q-0.2197265625-0.087890625-0.538330078125-0.19775390625t-0.626220703125-0.4833984375q-0.85693359375,0.3076171875-1.329345703125,0.791015625t-0.714111328125,1.175537109375t-0.296630859375,1.658935546875t-0.054931640625,2.3291015625z M86.723779296875,105.11962890625q0-0.2197265625,0.340576171875-0.37353515625t0.81298828125-0.2197265625t0.90087890625-0.10986328125t0.648193359375-0.0439453125q0.087890625-0.59326171875,0.252685546875-1.60400390625t0.406494140625-2.164306640625t0.604248046875-2.318115234375t0.87890625-2.109375t1.219482421875-1.549072265625t1.64794921875-0.604248046875l-0.0439453125,0q0.3076171875-0.0439453125,0.604248046875-0.06591796875t0.604248046875-0.02197265625q0.72509765625,0,1.571044921875,0.28564453125t1.571044921875,0.802001953125t1.219482421875,1.241455078125t0.494384765625,1.5380859375q0,0.63720703125-0.318603515625,1.373291015625t-1.109619140625,0.736083984375q-0.263671875,0-0.538330078125-0.1318359375t-0.516357421875-0.28564453125q0.087890625-0.50537109375,0.087890625-1.0107421875q0-0.263671875-0.02197265625-0.50537109375q-0.06591796875-0.76904296875-0.32958984375-1.351318359375t-0.758056640625-0.9228515625t-1.175537109375-0.252685546875q-0.90087890625,0.1318359375-1.351318359375,1.0986328125t-0.626220703125,2.296142578125t-0.2197265625,2.70263671875t-0.17578125,2.230224609375q1.03271484375,0.087890625,1.746826171875,0.087890625l1.790771484375,0q0.17578125,0,0.604248046875,0.02197265625t0.8349609375,0.087890625t0.72509765625,0.230712890625t0.318603515625,0.428466796875q0,0.2197265625-0.17578125,0.384521484375t-0.428466796875,0.230712890625t-0.52734375,0.087890625t-0.450439453125,0.02197265625q-0.76904296875,0-1.307373046875-0.06591796875t-1.03271484375-0.120849609375t-1.03271484375-0.054931640625t-1.263427734375,0.15380859375q-0.2197265625,2.43896484375-0.3515625,4.833984375t-0.1318359375,4.833984375q0,3.8232421875,0.24169921875,7.49267578125t0.87890625,7.44873046875q0.087890625,0.3515625,0.15380859375,0.802001953125t0.06591796875,0.867919921875q0,0.3955078125-0.24169921875,0.648193359375t-0.604248046875,0.362548828125t-0.7470703125,0.15380859375t-0.692138671875,0.0439453125q-1.25244140625,0-1.7578125-0.384521484375t-0.72509765625-1.549072265625q-0.54931640625-3.09814453125-0.703125-6.251220703125t-0.15380859375-6.361083984375q0-3.14208984375,0.230712890625-6.273193359375t0.582275390625-6.229248046875q-0.17578125,0-0.604248046875,0.02197265625t-0.85693359375,0t-0.7470703125-0.15380859375t-0.318603515625-0.46142578125z M102.93234863281,105.11962890625q0-0.2197265625,0.340576171875-0.37353515625t0.81298828125-0.2197265625t0.90087890625-0.10986328125t0.648193359375-0.0439453125q0.087890625-0.59326171875,0.252685546875-1.60400390625t0.406494140625-2.164306640625t0.604248046875-2.318115234375t0.87890625-2.109375t1.219482421875-1.549072265625t1.64794921875-0.604248046875l-0.0439453125,0q0.3076171875-0.0439453125,0.604248046875-0.06591796875t0.604248046875-0.02197265625q0.72509765625,0,1.571044921875,0.28564453125t1.571044921875,0.802001953125t1.219482421875,1.241455078125t0.494384765625,1.5380859375q0,0.63720703125-0.318603515625,1.373291015625t-1.109619140625,0.736083984375q-0.263671875,0-0.538330078125-0.1318359375t-0.516357421875-0.28564453125q0.087890625-0.50537109375,0.087890625-1.0107421875q0-0.263671875-0.02197265625-0.50537109375q-0.06591796875-0.76904296875-0.32958984375-1.351318359375t-0.758056640625-0.9228515625t-1.175537109375-0.252685546875q-0.90087890625,0.1318359375-1.351318359375,1.0986328125t-0.626220703125,2.296142578125t-0.2197265625,2.70263671875t-0.17578125,2.230224609375q1.03271484375,0.087890625,1.746826171875,0.087890625l1.790771484375,0q0.17578125,0,0.604248046875,0.02197265625t0.8349609375,0.087890625t0.72509765625,0.230712890625t0.318603515625,0.428466796875q0,0.2197265625-0.17578125,0.384521484375t-0.428466796875,0.230712890625t-0.52734375,0.087890625t-0.450439453125,0.02197265625q-0.76904296875,0-1.307373046875-0.06591796875t-1.03271484375-0.120849609375t-1.03271484375-0.054931640625t-1.263427734375,0.15380859375q-0.2197265625,2.43896484375-0.3515625,4.833984375t-0.1318359375,4.833984375q0,3.8232421875,0.24169921875,7.49267578125t0.87890625,7.44873046875q0.087890625,0.3515625,0.15380859375,0.802001953125t0.06591796875,0.867919921875q0,0.3955078125-0.24169921875,0.648193359375t-0.604248046875,0.362548828125t-0.7470703125,0.15380859375t-0.692138671875,0.0439453125q-1.25244140625,0-1.7578125-0.384521484375t-0.72509765625-1.549072265625q-0.54931640625-3.09814453125-0.703125-6.251220703125t-0.15380859375-6.361083984375q0-3.14208984375,0.230712890625-6.273193359375t0.582275390625-6.229248046875q-0.17578125,0-0.604248046875,0.02197265625t-0.85693359375,0t-0.7470703125-0.15380859375t-0.318603515625-0.46142578125z M119.14091796875,115.205078125q0-1.5380859375,0.340576171875-3.62548828125t1.153564453125-3.955078125t2.142333984375-3.175048828125t3.350830078125-1.307373046875q1.8896484375,0,2.83447265625,1.087646484375t0.94482421875,2.933349609375q0,1.20849609375-0.450439453125,2.647705078125t-1.285400390625,2.724609375t-1.9775390625,2.142333984375t-2.548828125,0.85693359375l-0.5712890625-0.0439453125q0,0.59326171875,0.17578125,1.593017578125t0.516357421875,1.988525390625t0.87890625,1.73583984375t1.307373046875,0.7470703125q1.12060546875,0,2.1533203125-0.90087890625t1.95556640625-1.99951171875t1.7138671875-1.99951171875t1.4501953125-0.90087890625q0.3515625,0,0.72509765625,0.10986328125t0.41748046875,0.615234375q0,0.3076171875-0.164794921875,0.50537109375t-0.296630859375,0.439453125q-0.68115234375,1.16455078125-1.483154296875,2.21923828125t-1.812744140625,1.91162109375t-2.208251953125,1.351318359375t-2.647705078125,0.494384765625q-1.8896484375,0-3.14208984375-0.670166015625t-2.021484375-1.8017578125t-1.109619140625-2.61474609375t-0.340576171875-3.109130859375z M123.0740234375,113.53515625l0.615234375,0.54931640625q0.439453125,0.3955078125,0.87890625,0.17578125t0.791015625-0.802001953125t0.648193359375-1.439208984375t0.52734375-1.7578125t0.340576171875-1.7578125t0.10986328125-1.42822265625l0-0.7470703125t-0.06591796875-0.791015625t-0.230712890625-0.626220703125t-0.516357421875-0.318603515625q-0.10986328125-0.02197265625-0.19775390625-0.02197265625q-0.7470703125,0-1.2744140625,0.94482421875q-0.5712890625,1.0546875-0.9228515625,2.559814453125t-0.50537109375,3.087158203125t-0.19775390625,2.373046875z M137.50280761719,115.205078125q0-1.5380859375,0.340576171875-3.62548828125t1.153564453125-3.955078125t2.142333984375-3.175048828125t3.350830078125-1.307373046875q1.8896484375,0,2.83447265625,1.087646484375t0.94482421875,2.933349609375q0,1.20849609375-0.450439453125,2.647705078125t-1.285400390625,2.724609375t-1.9775390625,2.142333984375t-2.548828125,0.85693359375l-0.5712890625-0.0439453125q0,0.59326171875,0.17578125,1.593017578125t0.516357421875,1.988525390625t0.87890625,1.73583984375t1.307373046875,0.7470703125q1.12060546875,0,2.1533203125-0.90087890625t1.95556640625-1.99951171875t1.7138671875-1.99951171875t1.4501953125-0.90087890625q0.3515625,0,0.72509765625,0.10986328125t0.41748046875,0.615234375q0,0.3076171875-0.164794921875,0.50537109375t-0.296630859375,0.439453125q-0.68115234375,1.16455078125-1.483154296875,2.21923828125t-1.812744140625,1.91162109375t-2.208251953125,1.351318359375t-2.647705078125,0.494384765625q-1.8896484375,0-3.14208984375-0.670166015625t-2.021484375-1.8017578125t-1.109619140625-2.61474609375t-0.340576171875-3.109130859375z M141.43591308594,113.53515625l0.615234375,0.54931640625q0.439453125,0.3955078125,0.87890625,0.17578125t0.791015625-0.802001953125t0.648193359375-1.439208984375t0.52734375-1.7578125t0.340576171875-1.7578125t0.10986328125-1.42822265625l0-0.7470703125t-0.06591796875-0.791015625t-0.230712890625-0.626220703125t-0.516357421875-0.318603515625q-0.10986328125-0.02197265625-0.19775390625-0.02197265625q-0.7470703125,0-1.2744140625,0.94482421875q-0.5712890625,1.0546875-0.9228515625,2.559814453125t-0.50537109375,3.087158203125t-0.19775390625,2.373046875z"/><path fill="#" d=""/></svg>
