<?xml version="1.0"?>
<svg version="1.1" xmlns="http://www.w3.org/2000/svg" width="400px" height="200px" style="border: dashed 2px #aaa"><path fill="#f5f5f5" d="M51.38427734375,118.9404296875q-0.02197265625-0.6591796875-0.02197265625-1.318359375q0-2.0654296875,0.2197265625-4.15283203125q0.263671875-2.7685546875,0.3515625-5.44921875q0.087890625-3.14208984375,0.263671875-6.52587890625q0.10986328125-1.845703125,0.10986328125-3.6474609375q0-1.47216796875-0.06591796875-2.92236328125q0.2197265625-0.50537109375,0.582275390625-0.68115234375t0.911865234375-0.17578125q0.263671875,0,0.560302734375,0.0439453125t0.516357421875,0.2197265625q0.3076171875,0.0439453125,0.758056640625,0.087890625t0.692138671875,0.263671875q0.087890625,0.1318359375,0.450439453125,0.90087890625t0.85693359375,1.86767578125t1.03271484375,2.384033203125t1.03271484375,2.43896484375t0.85693359375,2.032470703125t0.450439453125,1.0986328125q2.0654296875-3.7353515625,4.04296875-7.679443359375t4.32861328125-7.437744140625q0.2197265625-0.3076171875,0.758056640625-0.450439453125t0.889892578125-0.142822265625q0.94482421875,0,1.373291015625,0.450439453125t0.560302734375,1.153564453125q0.087890625,0.439453125,0.10986328125,0.94482421875q0.02197265625,0.263671875-0.02197265625,0.54931640625q-0.087890625,0.81298828125-0.087890625,1.5380859375q0,5.11962890625-0.3515625,10.162353515625t-0.63720703125,10.184326171875q-0.0439453125,1.0546875-0.0439453125,2.197265625t0.0439453125,2.373046875q0.02197265625,0.439453125,0.02197265625,0.85693359375q0,1.93359375-0.32958984375,3.603515625q-0.3076171875,0.50537109375-1.0107421875,0.63720703125t-1.1865234375,0.1318359375q-1.03271484375,0-1.9775390625-0.4833984375l-0.24169921875-0.28564453125l-0.087890625-0.3515625t-0.0439453125-0.3515625q0-3.18603515625,0.230712890625-6.416015625t0.516357421875-6.448974609375t0.604248046875-6.427001953125t0.538330078125-6.416015625q-1.29638671875,2.1533203125-2.515869140625,4.383544921875t-2.296142578125,4.537353515625q-0.3955078125,0.90087890625-0.758056640625,1.93359375t-0.867919921875,1.845703125q-0.263671875,0.3955078125-0.889892578125,0.4833984375t-1.087646484375,0.087890625q-0.439453125,0-0.911865234375-0.15380859375t-0.648193359375-0.6591796875q-0.81298828125-2.48291015625-1.73583984375-4.85595703125t-1.86767578125-4.81201171875q0,1.6259765625,0.06591796875,4.207763671875t0.06591796875,5.350341796875t-0.087890625,5.29541015625t-0.41748046875,3.9990234375q-0.087890625,0.54931640625-0.714111328125,0.68115234375t-1.087646484375,0.1318359375q-0.3515625,0-0.670166015625-0.0439453125t-0.626220703125-0.17578125z M77.480541992188,122.1923828125q0.087890625-4.59228515625,0.384521484375-9.16259765625t0.516357421875-9.16259765625q0.0439453125-1.7578125,0.0439453125-3.197021484375t0.142822265625-2.493896484375t0.52734375-1.614990234375t1.285400390625-0.560302734375q0.76904296875,0,1.16455078125,0.2197265625t0.604248046875,0.560302734375t0.252685546875,0.76904296875t0.0439453125,0.867919921875q0,0.63720703125,0.0439453125,1.263427734375t0.0439453125,1.263427734375q0,4.63623046875-0.252685546875,9.25048828125t-0.252685546875,9.29443359375q0,0.68115234375,0.02197265625,1.373291015625t0.02197265625,1.417236328125q0,0.263671875-0.24169921875,0.439453125t-0.604248046875,0.296630859375t-0.76904296875,0.164794921875t-0.670166015625,0.0439453125q-0.3076171875,0-0.692138671875-0.0439453125t-0.7470703125-0.186767578125t-0.615234375-0.340576171875t-0.252685546875-0.46142578125z M78.711010742188,92.3974609375q0-0.2197265625,0.06591796875-0.494384765625t0.15380859375-0.494384765625q0.0439453125-0.263671875,0.1318359375-0.90087890625t0.318603515625-1.241455078125t0.63720703125-1.07666015625t1.153564453125-0.472412109375l0.41748046875,0q0.3515625,0.087890625,0.714111328125,0.2197265625t0.362548828125,0.63720703125q0,0.2197265625-0.02197265625,0.41748046875t-0.06591796875,0.439453125q-0.17578125,1.29638671875-0.340576171875,2.04345703125t-0.384521484375,1.131591796875t-0.560302734375,0.494384765625t-0.867919921875,0.15380859375q-0.17578125,0-0.472412109375-0.02197265625t-0.5712890625-0.10986328125t-0.472412109375-0.274658203125t-0.19775390625-0.450439453125z M87.163232421875,93.73779296875q0-0.263671875,0.252685546875-0.3955078125t0.54931640625-0.19775390625t0.538330078125-0.06591796875l0.24169921875,0q0.76904296875,0,1.109619140625,0.3515625t0.823974609375,0.90087890625q3.2958984375,4.76806640625,6.04248046875,9.810791015625t5.29541015625,10.206298828125q0.2197265625-6.0205078125,0.450439453125-12.117919921875t0.582275390625-12.095947265625q0-0.263671875,0.252685546875-0.439453125t0.5712890625-0.263671875t0.648193359375-0.10986328125t0.50537109375-0.02197265625q0.263671875,0,0.582275390625,0.02197265625t0.63720703125,0.1318359375t0.52734375,0.263671875t0.208740234375,0.41748046875q0.087890625,0.94482421875,0.098876953125,1.900634765625t0.010986328125,1.900634765625q0,7.0751953125-0.3076171875,13.86474609375t-0.3076171875,13.7109375l0,1.58203125q0,0.087890625-0.087890625,0.263671875q0.0439453125,0.17578125,0.1318359375,0.384521484375t0.087890625,0.296630859375q0,0.3515625-0.362548828125,0.52734375t-0.791015625,0.274658203125t-0.758056640625,0.098876953125t-0.24169921875,0q-1.12060546875,0-1.8896484375-0.615234375t-0.76904296875-1.47216796875q-1.6259765625-3.6474609375-3.240966796875-7.239990234375t-3.372802734375-7.152099609375q-1.12060546875-2.2412109375-2.252197265625-4.493408203125t-2.427978515625-4.361572265625q0.0439453125,0.0439453125,0.0439453125,0.1318359375q0.2197265625,2.197265625,0.472412109375,4.383544921875t0.384521484375,4.383544921875q0.087890625,1.8896484375,0.19775390625,3.8232421875t0.3515625,3.8232421875q0,0.72509765625-0.450439453125,0.9228515625t-1.043701171875,0.19775390625q-0.50537109375,0-0.955810546875-0.1318359375t-0.538330078125-0.6591796875q0-2.021484375-0.15380859375-4.295654296875t-0.28564453125-4.581298828125q-0.2197265625-3.05419921875-0.582275390625-6.207275390625t-0.362548828125-6.163330078125q0-0.1318359375,0.02197265625-0.274658203125t0.02197265625-0.318603515625q-0.1318359375-0.2197265625-0.296630859375-0.46142578125t-0.164794921875-0.439453125z M111.56760253906,120.126953125q0.0439453125-0.9228515625,0.0439453125-1.8017578125q0-3.18603515625,0.230712890625-6.35009765625t0.318603515625-6.35009765625q0.1318359375-3.6474609375,0.24169921875-7.22900390625t0.439453125-7.20703125q0.087890625-0.90087890625,0.516357421875-1.175537109375t1.285400390625-0.274658203125q0.3955078125,0,1.0546875,0.15380859375t0.6591796875,0.7470703125q0.3076171875,0.0439453125,0.615234375,0.0439453125q0.46142578125,0,0.94482421875-0.087890625q0.791015625-0.1318359375,1.614990234375-0.296630859375t1.636962890625-0.318603515625t1.56005859375-0.15380859375q0.17578125,0,0.494384765625,0.02197265625t0.63720703125,0.1318359375t0.538330078125,0.274658203125t0.2197265625,0.428466796875t-0.516357421875,0.472412109375t-1.351318359375,0.362548828125t-1.8017578125,0.263671875t-1.8896484375,0.186767578125t-1.636962890625,0.120849609375t-1.021728515625,0.0439453125l-0.0439453125,8.26171875l0.0439453125,4.10888671875q0.68115234375,0,2.04345703125-0.0439453125q0.54931640625-0.02197265625,1.0986328125-0.02197265625q0.8349609375,0,1.7138671875,0.0439453125q1.4501953125,0.06591796875,2.61474609375,0.263671875t1.47216796875,0.703125q0,0.3076171875-0.318603515625,0.494384765625t-0.714111328125,0.274658203125t-0.802001953125,0.10986328125t-0.582275390625,0.02197265625q-1.6259765625,0-3.27392578125-0.06591796875t-3.251953125-0.263671875q0,2.70263671875-0.142822265625,5.361328125t-0.142822265625,5.361328125q0,1.16455078125,0.02197265625,2.296142578125t0.263671875,2.252197265625q0.59326171875-0.0439453125,1.285400390625-0.10986328125t1.40625-0.164794921875t1.373291015625-0.164794921875t1.142578125-0.06591796875q0.263671875,0,0.714111328125,0.06591796875t0.9228515625,0.2197265625t0.81298828125,0.384521484375t0.340576171875,0.538330078125q0,0.3515625-0.648193359375,0.626220703125t-1.658935546875,0.439453125t-2.208251953125,0.230712890625t-2.318115234375,0.087890625t-2.021484375,0.02197265625l-1.2744140625,0q-1.20849609375,0-1.768798828125-0.450439453125t-0.780029296875-1.175537109375q-0.17578125-0.59326171875-0.15380859375-1.34033203125l0-0.3076171875z M138.45861816406,91.485595703125q-0.054931640625-0.670166015625,0.087890625-1.16455078125t0.5712890625-0.81298828125t1.373291015625-0.318603515625l3.53759765625,0q0.72509765625,0,1.900634765625,0.076904296875t2.52685546875,0.230712890625t2.691650390625,0.472412109375t2.449951171875,0.791015625t1.8017578125,1.16455078125t0.692138671875,1.636962890625q0,1.34033203125-0.780029296875,2.515869140625t-1.95556640625,2.120361328125t-2.48291015625,1.680908203125t-2.340087890625,1.329345703125q4.0869140625,0.90087890625,6.39404296875,3.7353515625t2.30712890625,7.0751953125q0,2.2412109375-0.85693359375,4.427490234375t-2.340087890625,3.944091796875t-3.515625,2.83447265625t-4.361572265625,1.07666015625q-0.3076171875,0-0.692138671875-0.06591796875t-0.703125-0.208740234375t-0.54931640625-0.406494140625t-0.230712890625-0.68115234375q0-1.93359375,2.08740234375-1.93359375q0.3515625,0,0.823974609375,0.098876953125t0.736083984375,0.406494140625q1.20849609375-0.50537109375,2.208251953125-1.60400390625t1.69189453125-2.449951171875t1.07666015625-2.83447265625t0.384521484375-2.691650390625q0-1.4501953125-0.428466796875-2.955322265625t-1.241455078125-2.79052734375t-1.99951171875-2.164306640625t-2.724609375-1.0986328125q-0.3955078125-0.0439453125-0.867919921875-0.06591796875l-0.94482421875-0.0439453125t-0.9228515625-0.1318359375t-0.780029296875-0.3515625q0.17578125,3.6474609375,0.450439453125,7.27294921875t0.736083984375,7.27294921875q0.17578125,0.17578125,0.24169921875,0.516357421875t0.10986328125,0.72509765625t0.0439453125,0.736083984375l0,0.59326171875q0,0.3955078125-0.263671875,0.648193359375t-0.626220703125,0.406494140625t-0.76904296875,0.19775390625t-0.714111328125,0.0439453125q-0.98876953125,0-1.51611328125-0.263671875t-0.7470703125-0.76904296875t-0.28564453125-1.153564453125t-0.10986328125-1.417236328125q-0.59326171875-6.13037109375-0.85693359375-12.12890625t-0.263671875-12.12890625q0-0.72509765625-0.054931640625-1.395263671875z M142.51257324219,90.5517578125q0,2.70263671875,0.17578125,5.416259765625t0.3076171875,5.416259765625q0.98876953125-0.59326171875,2.5927734375-1.395263671875t3.109130859375-1.768798828125t2.581787109375-2.13134765625t1.07666015625-2.52685546875q0-1.07666015625-1.2744140625-1.636962890625t-2.96630859375-0.8349609375t-3.306884765625-0.340576171875t-2.296142578125-0.19775390625z M161.70942382812,120.126953125q0.0439453125-0.9228515625,0.0439453125-1.8017578125q0-3.18603515625,0.230712890625-6.35009765625t0.318603515625-6.35009765625q0.1318359375-3.6474609375,0.24169921875-7.22900390625t0.439453125-7.20703125q0.087890625-0.90087890625,0.516357421875-1.175537109375t1.285400390625-0.274658203125q0.3955078125,0,1.0546875,0.15380859375t0.6591796875,0.7470703125q0.3076171875,0.0439453125,0.615234375,0.0439453125q0.46142578125,0,0.94482421875-0.087890625q0.791015625-0.1318359375,1.614990234375-0.296630859375t1.636962890625-0.318603515625t1.56005859375-0.15380859375q0.17578125,0,0.494384765625,0.02197265625t0.63720703125,0.1318359375t0.538330078125,0.274658203125t0.2197265625,0.428466796875t-0.516357421875,0.472412109375t-1.351318359375,0.362548828125t-1.8017578125,0.263671875t-1.8896484375,0.186767578125t-1.636962890625,0.120849609375t-1.021728515625,0.0439453125l-0.0439453125,8.26171875l0.0439453125,4.10888671875q0.68115234375,0,2.04345703125-0.0439453125q0.54931640625-0.02197265625,1.0986328125-0.02197265625q0.8349609375,0,1.7138671875,0.0439453125q1.4501953125,0.06591796875,2.61474609375,0.263671875t1.47216796875,0.703125q0,0.3076171875-0.318603515625,0.494384765625t-0.714111328125,0.274658203125t-0.802001953125,0.10986328125t-0.582275390625,0.02197265625q-1.6259765625,0-3.27392578125-0.06591796875t-3.251953125-0.263671875q0,2.70263671875-0.142822265625,5.361328125t-0.142822265625,5.361328125q0,1.16455078125,0.02197265625,2.296142578125t0.263671875,2.252197265625q0.59326171875-0.0439453125,1.285400390625-0.10986328125t1.40625-0.164794921875t1.373291015625-0.164794921875t1.142578125-0.06591796875q0.263671875,0,0.714111328125,0.06591796875t0.9228515625,0.2197265625t0.81298828125,0.384521484375t0.340576171875,0.538330078125q0,0.3515625-0.648193359375,0.626220703125t-1.658935546875,0.439453125t-2.208251953125,0.230712890625t-2.318115234375,0.087890625t-2.021484375,0.02197265625l-1.2744140625,0q-1.20849609375,0-1.768798828125-0.450439453125t-0.780029296875-1.175537109375q-0.17578125-0.59326171875-0.15380859375-1.34033203125l0-0.3076171875z M179.85158691406,121.99462890625q0-0.1318359375,0.087890625-0.933837890625t0.230712890625-1.95556640625t0.318603515625-2.48291015625t0.3076171875-2.515869140625t0.230712890625-2.08740234375t0.098876953125-1.20849609375q-0.17578125-0.087890625-0.428466796875-0.252685546875t-0.252685546875-0.384521484375q0-0.3076171875,0.296630859375-0.494384765625t0.516357421875-0.274658203125q0.087890625-1.12060546875,0.2197265625-3.1201171875t0.406494140625-4.317626953125t0.76904296875-4.7021484375t1.307373046875-4.32861328125t1.95556640625-3.175048828125t2.8125-1.23046875t2.7685546875,1.0546875t1.790771484375,2.74658203125t1.0546875,3.75732421875t0.54931640625,4.10888671875t0.230712890625,3.8232421875t0.087890625,2.8564453125q0.0439453125,0.68115234375,0.32958984375,0.911865234375t0.626220703125,0.318603515625t0.615234375,0.19775390625t0.274658203125,0.54931640625q0,0.50537109375-0.615234375,0.703125t-0.966796875,0.24169921875q0.2197265625,2.74658203125,0.604248046875,5.4052734375t1.021728515625,5.361328125q0.087890625,0.50537109375,0.24169921875,1.021728515625t0.15380859375,0.999755859375q0,0.3515625-0.24169921875,0.582275390625t-0.626220703125,0.362548828125t-0.76904296875,0.17578125t-0.648193359375,0.0439453125q-0.98876953125,0-1.669921875-0.37353515625t-0.90087890625-1.42822265625q-0.59326171875-2.83447265625-1.16455078125-5.95458984375q-0.4833984375-2.70263671875-0.4833984375-5.25146484375q0-0.3955078125,0.02197265625-0.791015625q-1.845703125,0-3.71337890625,0.087890625t-3.58154296875,0.6591796875q-0.0439453125,0.59326171875-0.2197265625,2.2412109375t-0.3955078125,3.53759765625t-0.450439453125,3.614501953125t-0.274658203125,2.449951171875q-0.0439453125,0.3076171875-0.450439453125,0.582275390625t-0.87890625,0.296630859375t-0.8349609375-0.296630859375t-0.362548828125-1.131591796875z M183.96047363281,108.67919921875q1.7138671875-0.3955078125,3.438720703125-0.46142578125t3.482666015625-0.15380859375q-0.087890625-0.54931640625-0.0439453125-1.131591796875t0.0439453125-1.175537109375q0-1.29638671875-0.06591796875-3.01025390625t-0.19775390625-3.4716796875t-0.340576171875-3.460693359375t-0.472412109375-3.0322265625t-0.560302734375-2.120361328125t-0.648193359375-0.791015625q-0.68115234375,0.0439453125-1.285400390625,1.175537109375t-1.0986328125,2.87841796875t-0.90087890625,3.9111328125t-0.68115234375,4.229736328125t-0.450439453125,3.84521484375t-0.2197265625,2.7685546875z M201.9927734375,115.49072265625q0-4.76806640625,0.428466796875-9.547119140625t1.790771484375-9.415283203125q0.3955078125-1.38427734375,1.03271484375-2.735595703125t1.56005859375-2.406005859375t2.197265625-1.7138671875t3.0322265625-0.6591796875l0.46142578125,0.0439453125q1.8896484375,0.263671875,2.79052734375,1.527099609375t0.90087890625,3.153076171875q0,0.50537109375-0.120849609375,1.263427734375t-0.384521484375,1.461181640625t-0.714111328125,1.197509765625t-1.131591796875,0.494384765625q-0.3076171875-0.0439453125-0.560302734375-0.10986328125t-0.472412109375-0.28564453125q0.3515625-0.76904296875,0.626220703125-1.60400390625t0.274658203125-1.91162109375q0-0.3955078125-0.06591796875-1.0107421875t-0.252685546875-1.219482421875t-0.494384765625-1.0546875t-0.85693359375-0.450439453125q-1.38427734375,0-2.3291015625,1.549072265625t-1.58203125,3.955078125t-0.94482421875,5.3173828125t-0.472412109375,5.625t-0.186767578125,4.89990234375t-0.02197265625,3.087158203125q0,1.0546875-0.02197265625,2.3291015625l0,0.28564453125q0.02197265625,1.12060546875,0.15380859375,2.13134765625q0.17578125,1.142578125,0.68115234375,1.9775390625t1.58203125,0.966796875q0.32958984375,0.0439453125,0.63720703125,0.0439453125q1.2744140625,0,2.30712890625-0.72509765625q1.2744140625-0.90087890625,2.26318359375-2.340087890625t1.7578125-3.1640625t1.417236328125-3.262939453125t1.263427734375-2.548828125t1.2744140625-1.0107421875q0.2197265625,0,0.6591796875,0.087890625t0.439453125,0.41748046875q0,0.087890625-0.0439453125,0.24169921875t-0.10986328125,0.24169921875q-0.59326171875,2.3291015625-1.505126953125,4.833984375t-2.3291015625,4.559326171875t-3.4716796875,3.350830078125t-4.932861328125,1.29638671875q-2.0654296875,0-3.350830078125-0.780029296875t-1.9775390625-2.08740234375t-0.94482421875-2.955322265625t-0.252685546875-3.33984375z M225.32048339844,96.077880859375q-0.0439453125-0.582275390625,0.098876953125-1.0986328125t0.538330078125-0.85693359375t1.34033203125-0.340576171875q0.2197265625,0,0.538330078125,0.0439453125t0.63720703125,0.142822265625t0.516357421875,0.274658203125t0.19775390625,0.4833984375q0,0.81298828125,0.054931640625,2.142333984375t0.142822265625,2.7685546875t0.164794921875,2.8125t0.142822265625,2.230224609375q1.7138671875-0.087890625,3.44970703125-0.087890625t3.427734375-0.087890625l3.0322265625-0.087890625l0-2.17529296875q0-3.6474609375-0.142822265625-7.305908203125t-0.494384765625-7.305908203125q0-0.263671875,0.2197265625-0.428466796875t0.516357421875-0.252685546875t0.615234375-0.10986328125t0.494384765625-0.02197265625q0.50537109375,0,1.087646484375,0.15380859375t0.670166015625,0.6591796875l0.1318359375,0.94482421875q0.54931640625,3.955078125,0.7470703125,7.822265625t0.28564453125,7.734375q0.263671875,0.0439453125,0.560302734375,0.142822265625t0.604248046875,0.186767578125q0.2197265625,0.087890625,0.626220703125,0.263671875t0.406494140625,0.54931640625q0,0.3515625-0.3076171875,0.54931640625t-0.692138671875,0.296630859375t-0.7470703125,0.120849609375t-0.450439453125,0.02197265625q0.0439453125,1.6259765625,0.0439453125,3.240966796875l0,3.240966796875l0,7.09716796875l0,3.955078125q0,0.263671875-0.252685546875,0.472412109375t-0.604248046875,0.340576171875t-0.736083984375,0.17578125t-0.692138671875,0.0439453125t-0.72509765625-0.0439453125t-0.7470703125-0.17578125t-0.582275390625-0.32958984375t-0.252685546875-0.4833984375l0-0.94482421875q0.087890625-4.1748046875,0.19775390625-8.272705078125t0.2197265625-8.228759765625q-2.39501953125,0.087890625-4.866943359375,0.10986328125t-4.910888671875,0.10986328125q0.263671875,3.09814453125,0.604248046875,6.185302734375t0.714111328125,6.185302734375q0,0.263671875-0.252685546875,0.472412109375t-0.59326171875,0.340576171875t-0.72509765625,0.17578125t-0.692138671875,0.0439453125q-0.63720703125,0-1.395263671875-0.2197265625t-0.845947265625-0.81298828125q-0.263671875-2.3291015625-0.494384765625-5.1416015625t-0.406494140625-5.745849609375t-0.274658203125-5.745849609375t-0.098876953125-5.09765625q0-0.54931640625-0.0439453125-1.131591796875z M258.99006347656,92.3974609375q0-1.03271484375,0.252685546875-1.505126953125t0.72509765625-0.6591796875t1.142578125-0.142822265625t1.571044921875,0.0439453125q2.28515625,0,4.6142578125,0.703125t4.19677734375,2.054443359375t3.01025390625,3.328857421875t1.142578125,4.54833984375q0,1.7138671875-0.494384765625,3.240966796875t-1.395263671875,2.8564453125t-2.109375,2.427978515625t-2.65869140625,1.91162109375q0.59326171875,0.59326171875,1.5380859375,2.098388671875t1.86767578125,3.2080078125t1.636962890625,3.306884765625t0.845947265625,2.4169921875l-0.263671875,0.3955078125q-0.59326171875,0.3515625-1.42822265625,0.37353515625q-0.3955078125,0-1.03271484375-0.098876953125t-0.81298828125-0.582275390625q-0.90087890625-2.52685546875-1.966552734375-5.20751953125t-2.625732421875-4.833984375l0-0.0439453125q-0.54931640625,0.2197265625-1.087646484375,0.428466796875t-1.087646484375,0.384521484375q0.17578125,2.43896484375,0.362548828125,4.801025390625t0.186767578125,4.779052734375q0,0.3076171875-0.296630859375,0.494384765625t-0.670166015625,0.296630859375t-0.758056640625,0.15380859375t-0.626220703125,0.0439453125q-0.2197265625,0-0.626220703125-0.0439453125t-0.780029296875-0.15380859375t-0.648193359375-0.318603515625t-0.274658203125-0.560302734375q0-2.43896484375-0.10986328125-4.866943359375t-0.24169921875-4.844970703125q-0.68115234375-0.439453125-0.68115234375-1.142578125q0-0.54931640625,0.52734375-0.7470703125q-0.263671875-4.63623046875-0.604248046875-9.25048828125t-0.340576171875-9.29443359375z M262.96711425781,91.71630859375q0.3076171875,4.76806640625,0.692138671875,9.42626953125t0.736083984375,9.42626953125q1.5380859375-0.439453125,2.867431640625-1.527099609375t2.296142578125-2.449951171875t1.505126953125-2.96630859375t0.538330078125-3.18603515625q0-1.7578125-0.703125-3.372802734375t-1.86767578125-2.823486328125q-1.1865234375-1.20849609375-2.724609375-1.8896484375q-1.3623046875-0.59326171875-2.8564453125-0.59326171875l-0.3955078125,0z M280.14248046875,120.126953125q0.0439453125-0.9228515625,0.0439453125-1.8017578125q0-3.18603515625,0.230712890625-6.35009765625t0.318603515625-6.35009765625q0.1318359375-3.6474609375,0.24169921875-7.22900390625t0.439453125-7.20703125q0.087890625-0.90087890625,0.516357421875-1.175537109375t1.285400390625-0.274658203125q0.3955078125,0,1.0546875,0.15380859375t0.6591796875,0.7470703125q0.3076171875,0.0439453125,0.615234375,0.0439453125q0.46142578125,0,0.94482421875-0.087890625q0.791015625-0.1318359375,1.614990234375-0.296630859375t1.636962890625-0.318603515625t1.56005859375-0.15380859375q0.17578125,0,0.494384765625,0.02197265625t0.63720703125,0.1318359375t0.538330078125,0.274658203125t0.2197265625,0.428466796875t-0.516357421875,0.472412109375t-1.351318359375,0.362548828125t-1.8017578125,0.263671875t-1.8896484375,0.186767578125t-1.636962890625,0.120849609375t-1.021728515625,0.0439453125l-0.0439453125,8.26171875l0.0439453125,4.10888671875q0.68115234375,0,2.04345703125-0.0439453125q0.54931640625-0.02197265625,1.0986328125-0.02197265625q0.8349609375,0,1.7138671875,0.0439453125q1.4501953125,0.06591796875,2.61474609375,0.263671875t1.47216796875,0.703125q0,0.3076171875-0.318603515625,0.494384765625t-0.714111328125,0.274658203125t-0.802001953125,0.10986328125t-0.582275390625,0.02197265625q-1.6259765625,0-3.27392578125-0.06591796875t-3.251953125-0.263671875q0,2.70263671875-0.142822265625,5.361328125t-0.142822265625,5.361328125q0,1.16455078125,0.02197265625,2.296142578125t0.263671875,2.252197265625q0.59326171875-0.0439453125,1.285400390625-0.10986328125t1.40625-0.164794921875t1.373291015625-0.164794921875t1.142578125-0.06591796875q0.263671875,0,0.714111328125,0.06591796875t0.9228515625,0.2197265625t0.81298828125,0.384521484375t0.340576171875,0.538330078125q0,0.3515625-0.648193359375,0.626220703125t-1.658935546875,0.439453125t-2.208251953125,0.230712890625t-2.318115234375,0.087890625t-2.021484375,0.02197265625l-1.2744140625,0q-1.20849609375,0-1.768798828125-0.450439453125t-0.780029296875-1.175537109375q-0.17578125-0.59326171875-0.15380859375-1.34033203125l0-0.3076171875z M298.41647949219,118.3251953125q0-0.76904296875,0.52734375-0.977783203125t1.142578125-0.208740234375q1.07666015625,0,1.82373046875,0.966796875t1.417236328125,2.120361328125t1.329345703125,2.120361328125t1.56005859375,0.966796875q0.68115234375,0,1.241455078125-0.340576171875t0.966796875-0.85693359375t0.626220703125-1.16455078125t0.2197265625-1.285400390625q0-1.669921875-0.670166015625-3.44970703125t-1.7138671875-3.66943359375t-2.208251953125-3.8671875t-2.197265625-4.02099609375t-1.7138671875-4.163818359375t-0.68115234375-4.273681640625q0-3.22998046875,1.93359375-5.009765625t5.09765625-1.77978515625q1.07666015625,0,2.17529296875,0.3076171875t2.021484375,0.9228515625t1.505126953125,1.51611328125t0.582275390625,2.109375q0,0.3955078125-0.582275390625,0.516357421875t-0.845947265625,0.120849609375q-0.3955078125,0-0.85693359375-0.098876953125t-0.59326171875-0.538330078125t-0.37353515625-1.0107421875t-0.604248046875-1.065673828125t-0.85693359375-0.85693359375t-1.087646484375-0.362548828125q-0.98876953125,0-1.680908203125,0.406494140625t-1.12060546875,1.087646484375t-0.63720703125,1.527099609375t-0.208740234375,1.746826171875q0,2.109375,0.72509765625,4.251708984375t1.8017578125,4.2626953125t2.340087890625,4.185791015625t2.340087890625,4.02099609375t1.8017578125,3.8232421875t0.72509765625,3.53759765625q0,1.494140625-0.703125,2.52685546875t-1.77978515625,1.680908203125t-2.384033203125,0.94482421875t-2.559814453125,0.296630859375q-1.34033203125,0-2.74658203125-0.538330078125t-2.52685546875-1.483154296875t-1.845703125-2.208251953125t-0.72509765625-2.735595703125z M318.18461914063,106.96533203125q0-1.29638671875,0.142822265625-3.14208984375t0.52734375-3.84521484375t1.03271484375-3.97705078125t1.658935546875-3.49365234375t2.4169921875-2.39501953125q1.16455078125-0.72509765625,2.6806640625-0.72509765625q0.3076171875,0,0.63720703125,0.0439453125q3.8232421875,0.3515625,5.877685546875,1.746826171875t2.999267578125,3.53759765625t1.0986328125,4.8779296875t0.15380859375,5.767822265625q0,2.43896484375-0.450439453125,5.306396484375t-1.593017578125,5.350341796875t-3.153076171875,4.141845703125t-5.108642578125,1.658935546875q-1.8896484375,0-3.306884765625-0.692138671875t-2.406005859375-1.845703125t-1.6259765625-2.6806640625t-0.966796875-3.1640625t-0.472412109375-3.306884765625t-0.142822265625-3.1640625z M322.64506835938,105.9765625q0,0.94482421875,0.02197265625,2.318115234375t0.186767578125,2.889404296875t0.428466796875,3.021240234375t0.780029296875,2.735595703125t1.307373046875,2.021484375t1.91162109375,0.8349609375l0.10986328125,0q1.0107421875,0,1.8017578125-0.76904296875q0.8349609375-0.81298828125,1.483154296875-1.95556640625t1.12060546875-2.406005859375t0.845947265625-2.164306640625l-0.087890625,0.19775390625q0.63720703125-2.021484375,0.85693359375-4.141845703125t0.2197265625-4.185791015625q0-0.98876953125-0.1318359375-2.384033203125t-0.428466796875-2.911376953125t-0.76904296875-2.999267578125t-1.197509765625-2.581787109375t-1.69189453125-1.669921875q-0.703125-0.41748046875-1.56005859375-0.439453125q-0.32958984375,0-0.6591796875,0.06591796875q-1.12060546875,0.2197265625-1.91162109375,1.0986328125t-1.285400390625,2.164306640625t-0.758056640625,2.8125t-0.406494140625,3.076171875t-0.164794921875,2.96630859375t-0.02197265625,2.406005859375z M332.55473632813,112.744140625l0-0.0439453125l0,0.0439453125z M341.95178222656,92.3974609375q0-1.03271484375,0.252685546875-1.505126953125t0.72509765625-0.6591796875t1.142578125-0.142822265625t1.571044921875,0.0439453125q2.28515625,0,4.6142578125,0.703125t4.19677734375,2.054443359375t3.01025390625,3.328857421875t1.142578125,4.54833984375q0,1.7138671875-0.494384765625,3.240966796875t-1.395263671875,2.8564453125t-2.109375,2.427978515625t-2.65869140625,1.91162109375q0.59326171875,0.59326171875,1.5380859375,2.098388671875t1.86767578125,3.2080078125t1.636962890625,3.306884765625t0.845947265625,2.4169921875l-0.263671875,0.3955078125q-0.59326171875,0.3515625-1.42822265625,0.37353515625q-0.3955078125,0-1.03271484375-0.098876953125t-0.81298828125-0.582275390625q-0.90087890625-2.52685546875-1.966552734375-5.20751953125t-2.625732421875-4.833984375l0-0.0439453125q-0.54931640625,0.2197265625-1.087646484375,0.428466796875t-1.087646484375,0.384521484375q0.17578125,2.43896484375,0.362548828125,4.801025390625t0.186767578125,4.779052734375q0,0.3076171875-0.296630859375,0.494384765625t-0.670166015625,0.296630859375t-0.758056640625,0.15380859375t-0.626220703125,0.0439453125q-0.2197265625,0-0.626220703125-0.0439453125t-0.780029296875-0.15380859375t-0.648193359375-0.318603515625t-0.274658203125-0.560302734375q0-2.43896484375-0.10986328125-4.866943359375t-0.24169921875-4.844970703125q-0.68115234375-0.439453125-0.68115234375-1.142578125q0-0.54931640625,0.52734375-0.7470703125q-0.263671875-4.63623046875-0.604248046875-9.25048828125t-0.340576171875-9.29443359375z M345.92883300781,91.71630859375q0.3076171875,4.76806640625,0.692138671875,9.42626953125t0.736083984375,9.42626953125q1.5380859375-0.439453125,2.867431640625-1.527099609375t2.296142578125-2.449951171875t1.505126953125-2.96630859375t0.538330078125-3.18603515625q0-1.7578125-0.703125-3.372802734375t-1.86767578125-2.823486328125q-1.1865234375-1.20849609375-2.724609375-1.8896484375q-1.3623046875-0.59326171875-2.8564453125-0.59326171875l-0.3955078125,0z M361.7638671875,91.23291015625q0-0.3076171875,0.428466796875-0.472412109375t0.560302734375-0.164794921875l0.81298828125-0.1318359375q0.81298828125-0.1318359375,1.64794921875-0.230712890625t1.6259765625-0.186767578125q2.79052734375-0.3515625,5.5810546875-0.692138671875t5.625-0.340576171875q0.2197265625,0,0.604248046875,0.02197265625t0.76904296875,0.120849609375t0.6591796875,0.274658203125t0.274658203125,0.4833984375q0,0.2197265625-0.208740234375,0.384521484375t-0.494384765625,0.252685546875t-0.582275390625,0.10986328125t-0.472412109375,0.02197265625l-0.384521484375,0t-0.384521484375-0.087890625q-1.16455078125,0-2.296142578125,0.10986328125t-2.296142578125,0.19775390625q0.3076171875,0.3515625,0.32958984375,0.98876953125t0.0439453125,1.0986328125q0,7.7783203125,0.10986328125,15.46875t0.19775390625,15.53466796875l0,0.0439453125q-0.72509765625,0.63720703125-1.241455078125,0.81298828125t-1.043701171875,0.17578125q-0.50537109375,0-1.021728515625-0.186767578125t-1.241455078125-0.802001953125l0-0.0439453125l0.17578125-17.24853515625q0-1.7138671875-0.0439453125-3.779296875t-0.0439453125-4.185791015625t0.06591796875-4.097900390625t0.3515625-3.44970703125q-1.29638671875,0.1318359375-2.74658203125,0.3955078125q-1.25244140625,0.2197265625-2.39501953125,0.2197265625l-0.3955078125,0q-0.087890625,0-0.516357421875,0.02197265625t-0.87890625-0.02197265625t-0.81298828125-0.17578125t-0.362548828125-0.439453125z"/><path fill="#" d=""/></svg>
