<?xml version="1.0"?>
<svg version="1.1" xmlns="http://www.w3.org/2000/svg" width="400px" height="200px" style="border: dashed 2px #aaa"><path fill="#" d="M1.6611328125,122.728515625q-0.0263671875-0.791015625-0.0263671875-1.58203125q0-2.478515625,0.263671875-4.9833984375q0.31640625-3.322265625,0.421875-6.5390625q0.10546875-3.7705078125,0.31640625-7.8310546875q0.1318359375-2.21484375,0.1318359375-4.376953125q0-1.7666015625-0.0791015625-3.5068359375q0.263671875-0.6064453125,0.69873046875-0.8173828125t1.09423828125-0.2109375q0.31640625,0,0.67236328125,0.052734375t0.61962890625,0.263671875q0.369140625,0.052734375,0.90966796875,0.10546875t0.83056640625,0.31640625q0.10546875,0.158203125,0.54052734375,1.0810546875t1.0283203125,2.2412109375t1.2392578125,2.86083984375t1.2392578125,2.9267578125t1.0283203125,2.43896484375t0.54052734375,1.318359375q2.478515625-4.482421875,4.8515625-9.21533203125t5.1943359375-8.92529296875q0.263671875-0.369140625,0.90966796875-0.54052734375t1.06787109375-0.17138671875q1.1337890625,0,1.64794921875,0.54052734375t0.67236328125,1.38427734375q0.10546875,0.52734375,0.1318359375,1.1337890625q0.0263671875,0.31640625-0.0263671875,0.6591796875q-0.10546875,0.9755859375-0.10546875,1.845703125q0,6.1435546875-0.421875,12.19482421875t-0.7646484375,12.22119140625q-0.052734375,1.265625-0.052734375,2.63671875t0.052734375,2.84765625q0.0263671875,0.52734375,0.0263671875,1.0283203125q0,2.3203125-0.3955078125,4.32421875q-0.369140625,0.6064453125-1.212890625,0.7646484375t-1.423828125,0.158203125q-1.2392578125,0-2.373046875-0.580078125l-0.2900390625-0.3427734375l-0.10546875-0.421875t-0.052734375-0.421875q0-3.8232421875,0.27685546875-7.69921875t0.61962890625-7.73876953125t0.72509765625-7.71240234375t0.64599609375-7.69921875q-1.5556640625,2.583984375-3.01904296875,5.26025390625t-2.75537109375,5.44482421875q-0.474609375,1.0810546875-0.90966796875,2.3203125t-1.04150390625,2.21484375q-0.31640625,0.474609375-1.06787109375,0.580078125t-1.30517578125,0.10546875q-0.52734375,0-1.09423828125-0.1845703125t-0.77783203125-0.791015625q-0.9755859375-2.9794921875-2.0830078125-5.8271484375t-2.2412109375-5.7744140625q0,1.951171875,0.0791015625,5.04931640625t0.0791015625,6.42041015625t-0.10546875,6.3544921875t-0.5009765625,4.798828125q-0.10546875,0.6591796875-0.85693359375,0.8173828125t-1.30517578125,0.158203125q-0.421875,0-0.80419921875-0.052734375t-0.75146484375-0.2109375z M32.976650390625,126.630859375q0.10546875-5.5107421875,0.46142578125-10.9951171875t0.61962890625-10.9951171875q0.052734375-2.109375,0.052734375-3.83642578125t0.17138671875-2.99267578125t0.6328125-1.93798828125t1.54248046875-0.67236328125q0.9228515625,0,1.3974609375,0.263671875t0.72509765625,0.67236328125t0.30322265625,0.9228515625t0.052734375,1.04150390625q0,0.7646484375,0.052734375,1.51611328125t0.052734375,1.51611328125q0,5.5634765625-0.30322265625,11.1005859375t-0.30322265625,11.1533203125q0,0.8173828125,0.0263671875,1.64794921875t0.0263671875,1.70068359375q0,0.31640625-0.2900390625,0.52734375t-0.72509765625,0.35595703125t-0.9228515625,0.19775390625t-0.80419921875,0.052734375q-0.369140625,0-0.83056640625-0.052734375t-0.896484375-0.22412109375t-0.73828125-0.40869140625t-0.30322265625-0.5537109375z M34.453212890625,90.876953125q0-0.263671875,0.0791015625-0.59326171875t0.1845703125-0.59326171875q0.052734375-0.31640625,0.158203125-1.0810546875t0.38232421875-1.48974609375t0.7646484375-1.2919921875t1.38427734375-0.56689453125l0.5009765625,0q0.421875,0.10546875,0.85693359375,0.263671875t0.43505859375,0.7646484375q0,0.263671875-0.0263671875,0.5009765625t-0.0791015625,0.52734375q-0.2109375,1.5556640625-0.40869140625,2.4521484375t-0.46142578125,1.35791015625t-0.67236328125,0.59326171875t-1.04150390625,0.1845703125q-0.2109375,0-0.56689453125-0.0263671875t-0.685546875-0.1318359375t-0.56689453125-0.32958984375t-0.2373046875-0.54052734375z M44.59587890625,92.4853515625q0-0.31640625,0.30322265625-0.474609375t0.6591796875-0.2373046875t0.64599609375-0.0791015625l0.2900390625,0q0.9228515625,0,1.33154296875,0.421875t0.98876953125,1.0810546875q3.955078125,5.7216796875,7.2509765625,11.77294921875t6.3544921875,12.24755859375q0.263671875-7.224609375,0.54052734375-14.54150390625t0.69873046875-14.51513671875q0-0.31640625,0.30322265625-0.52734375t0.685546875-0.31640625t0.77783203125-0.1318359375t0.6064453125-0.0263671875q0.31640625,0,0.69873046875,0.0263671875t0.7646484375,0.158203125t0.6328125,0.31640625t0.25048828125,0.5009765625q0.10546875,1.1337890625,0.11865234375,2.28076171875t0.01318359375,2.28076171875q0,8.490234375-0.369140625,16.6376953125t-0.369140625,16.453125l0,1.8984375q0,0.10546875-0.10546875,0.31640625q0.052734375,0.2109375,0.158203125,0.46142578125t0.10546875,0.35595703125q0,0.421875-0.43505859375,0.6328125t-0.94921875,0.32958984375t-0.90966796875,0.11865234375t-0.2900390625,0q-1.3447265625,0-2.267578125-0.73828125t-0.9228515625-1.7666015625q-1.951171875-4.376953125-3.88916015625-8.68798828125t-4.04736328125-8.58251953125q-1.3447265625-2.689453125-2.70263671875-5.39208984375t-2.91357421875-5.23388671875q0.052734375,0.052734375,0.052734375,0.158203125q0.263671875,2.63671875,0.56689453125,5.26025390625t0.46142578125,5.26025390625q0.10546875,2.267578125,0.2373046875,4.587890625t0.421875,4.587890625q0,0.8701171875-0.54052734375,1.107421875t-1.25244140625,0.2373046875q-0.6064453125,0-1.14697265625-0.158203125t-0.64599609375-0.791015625q0-2.42578125-0.1845703125-5.15478515625t-0.3427734375-5.49755859375q-0.263671875-3.6650390625-0.69873046875-7.44873046875t-0.43505859375-7.39599609375q0-0.158203125,0.0263671875-0.32958984375t0.0263671875-0.38232421875q-0.158203125-0.263671875-0.35595703125-0.5537109375t-0.19775390625-0.52734375z M73.881123046875,124.15234375q0.052734375-1.107421875,0.052734375-2.162109375q0-3.8232421875,0.27685546875-7.6201171875t0.38232421875-7.6201171875q0.158203125-4.376953125,0.2900390625-8.6748046875t0.52734375-8.6484375q0.10546875-1.0810546875,0.61962890625-1.41064453125t1.54248046875-0.32958984375q0.474609375,0,1.265625,0.1845703125t0.791015625,0.896484375q0.369140625,0.052734375,0.73828125,0.052734375q0.5537109375,0,1.1337890625-0.10546875q0.94921875-0.158203125,1.93798828125-0.35595703125t1.96435546875-0.38232421875t1.8720703125-0.1845703125q0.2109375,0,0.59326171875,0.0263671875t0.7646484375,0.158203125t0.64599609375,0.32958984375t0.263671875,0.51416015625t-0.61962890625,0.56689453125t-1.62158203125,0.43505859375t-2.162109375,0.31640625t-2.267578125,0.22412109375t-1.96435546875,0.14501953125t-1.22607421875,0.052734375l-0.052734375,9.9140625l0.052734375,4.9306640625q0.8173828125,0,2.4521484375-0.052734375q0.6591796875-0.0263671875,1.318359375-0.0263671875q1.001953125,0,2.056640625,0.052734375q1.740234375,0.0791015625,3.1376953125,0.31640625t1.7666015625,0.84375q0,0.369140625-0.38232421875,0.59326171875t-0.85693359375,0.32958984375t-0.96240234375,0.1318359375t-0.69873046875,0.0263671875q-1.951171875,0-3.9287109375-0.0791015625t-3.90234375-0.31640625q0,3.2431640625-0.17138671875,6.43359375t-0.17138671875,6.43359375q0,1.3974609375,0.0263671875,2.75537109375t0.31640625,2.70263671875q0.7119140625-0.052734375,1.54248046875-0.1318359375t1.6875-0.19775390625t1.64794921875-0.19775390625t1.37109375-0.0791015625q0.31640625,0,0.85693359375,0.0791015625t1.107421875,0.263671875t0.9755859375,0.46142578125t0.40869140625,0.64599609375q0,0.421875-0.77783203125,0.75146484375t-1.99072265625,0.52734375t-2.64990234375,0.27685546875t-2.78173828125,0.10546875t-2.42578125,0.0263671875l-1.529296875,0q-1.4501953125,0-2.12255859375-0.54052734375t-0.93603515625-1.41064453125q-0.2109375-0.7119140625-0.1845703125-1.6083984375l0-0.369140625z M106.15034179687,89.78271484375q-0.06591796875-0.80419921875,0.10546875-1.3974609375t0.685546875-0.9755859375t1.64794921875-0.38232421875l4.2451171875,0q0.8701171875,0,2.28076171875,0.09228515625t3.0322265625,0.27685546875t3.22998046875,0.56689453125t2.93994140625,0.94921875t2.162109375,1.3974609375t0.83056640625,1.96435546875q0,1.6083984375-0.93603515625,3.01904296875t-2.3466796875,2.54443359375t-2.9794921875,2.01708984375t-2.80810546875,1.59521484375q4.904296875,1.0810546875,7.6728515625,4.482421875t2.7685546875,8.490234375q0,2.689453125-1.0283203125,5.31298828125t-2.80810546875,4.73291015625t-4.21875,3.4013671875t-5.23388671875,1.2919921875q-0.369140625,0-0.83056640625-0.0791015625t-0.84375-0.25048828125t-0.6591796875-0.48779296875t-0.27685546875-0.8173828125q0-2.3203125,2.5048828125-2.3203125q0.421875,0,0.98876953125,0.11865234375t0.88330078125,0.48779296875q1.4501953125-0.6064453125,2.64990234375-1.9248046875t2.0302734375-2.93994140625t1.2919921875-3.4013671875t0.46142578125-3.22998046875q0-1.740234375-0.51416015625-3.54638671875t-1.48974609375-3.3486328125t-2.3994140625-2.59716796875t-3.26953125-1.318359375q-0.474609375-0.052734375-1.04150390625-0.0791015625l-1.1337890625-0.052734375t-1.107421875-0.158203125t-0.93603515625-0.421875q0.2109375,4.376953125,0.54052734375,8.7275390625t0.88330078125,8.7275390625q0.2109375,0.2109375,0.2900390625,0.61962890625t0.1318359375,0.8701171875t0.052734375,0.88330078125l0,0.7119140625q0,0.474609375-0.31640625,0.77783203125t-0.75146484375,0.48779296875t-0.9228515625,0.2373046875t-0.85693359375,0.052734375q-1.1865234375,0-1.8193359375-0.31640625t-0.896484375-0.9228515625t-0.3427734375-1.38427734375t-0.1318359375-1.70068359375q-0.7119140625-7.3564453125-1.0283203125-14.5546875t-0.31640625-14.5546875q0-0.8701171875-0.06591796875-1.67431640625z M111.01508789062,88.662109375q0,3.2431640625,0.2109375,6.49951171875t0.369140625,6.49951171875q1.1865234375-0.7119140625,3.111328125-1.67431640625t3.73095703125-2.12255859375t3.09814453125-2.5576171875t1.2919921875-3.0322265625q0-1.2919921875-1.529296875-1.96435546875t-3.5595703125-1.001953125t-3.96826171875-0.40869140625t-2.75537109375-0.2373046875z M134.05130859375,124.15234375q0.052734375-1.107421875,0.052734375-2.162109375q0-3.8232421875,0.27685546875-7.6201171875t0.38232421875-7.6201171875q0.158203125-4.376953125,0.2900390625-8.6748046875t0.52734375-8.6484375q0.10546875-1.0810546875,0.61962890625-1.41064453125t1.54248046875-0.32958984375q0.474609375,0,1.265625,0.1845703125t0.791015625,0.896484375q0.369140625,0.052734375,0.73828125,0.052734375q0.5537109375,0,1.1337890625-0.10546875q0.94921875-0.158203125,1.93798828125-0.35595703125t1.96435546875-0.38232421875t1.8720703125-0.1845703125q0.2109375,0,0.59326171875,0.0263671875t0.7646484375,0.158203125t0.64599609375,0.32958984375t0.263671875,0.51416015625t-0.61962890625,0.56689453125t-1.62158203125,0.43505859375t-2.162109375,0.31640625t-2.267578125,0.22412109375t-1.96435546875,0.14501953125t-1.22607421875,0.052734375l-0.052734375,9.9140625l0.052734375,4.9306640625q0.8173828125,0,2.4521484375-0.052734375q0.6591796875-0.0263671875,1.318359375-0.0263671875q1.001953125,0,2.056640625,0.052734375q1.740234375,0.0791015625,3.1376953125,0.31640625t1.7666015625,0.84375q0,0.369140625-0.38232421875,0.59326171875t-0.85693359375,0.32958984375t-0.96240234375,0.1318359375t-0.69873046875,0.0263671875q-1.951171875,0-3.9287109375-0.0791015625t-3.90234375-0.31640625q0,3.2431640625-0.17138671875,6.43359375t-0.17138671875,6.43359375q0,1.3974609375,0.0263671875,2.75537109375t0.31640625,2.70263671875q0.7119140625-0.052734375,1.54248046875-0.1318359375t1.6875-0.19775390625t1.64794921875-0.19775390625t1.37109375-0.0791015625q0.31640625,0,0.85693359375,0.0791015625t1.107421875,0.263671875t0.9755859375,0.46142578125t0.40869140625,0.64599609375q0,0.421875-0.77783203125,0.75146484375t-1.99072265625,0.52734375t-2.64990234375,0.27685546875t-2.78173828125,0.10546875t-2.42578125,0.0263671875l-1.529296875,0q-1.4501953125,0-2.12255859375-0.54052734375t-0.93603515625-1.41064453125q-0.2109375-0.7119140625-0.1845703125-1.6083984375l0-0.369140625z M155.82190429688,126.3935546875q0-0.158203125,0.10546875-1.12060546875t0.27685546875-2.3466796875t0.38232421875-2.9794921875t0.369140625-3.01904296875t0.27685546875-2.5048828125t0.11865234375-1.4501953125q-0.2109375-0.10546875-0.51416015625-0.30322265625t-0.30322265625-0.46142578125q0-0.369140625,0.35595703125-0.59326171875t0.61962890625-0.32958984375q0.10546875-1.3447265625,0.263671875-3.744140625t0.48779296875-5.18115234375t0.9228515625-5.642578125t1.56884765625-5.1943359375t2.3466796875-3.81005859375t3.375-1.4765625t3.322265625,1.265625t2.14892578125,3.2958984375t1.265625,4.5087890625t0.6591796875,4.9306640625t0.27685546875,4.587890625t0.10546875,3.427734375q0.052734375,0.8173828125,0.3955078125,1.09423828125t0.75146484375,0.38232421875t0.73828125,0.2373046875t0.32958984375,0.6591796875q0,0.6064453125-0.73828125,0.84375t-1.16015625,0.2900390625q0.263671875,3.2958984375,0.72509765625,6.486328125t1.22607421875,6.43359375q0.10546875,0.6064453125,0.2900390625,1.22607421875t0.1845703125,1.19970703125q0,0.421875-0.2900390625,0.69873046875t-0.75146484375,0.43505859375t-0.9228515625,0.2109375t-0.77783203125,0.052734375q-1.1865234375,0-2.00390625-0.4482421875t-1.0810546875-1.7138671875q-0.7119140625-3.4013671875-1.3974609375-7.1455078125q-0.580078125-3.2431640625-0.580078125-6.3017578125q0-0.474609375,0.0263671875-0.94921875q-2.21484375,0-4.4560546875,0.10546875t-4.2978515625,0.791015625q-0.052734375,0.7119140625-0.263671875,2.689453125t-0.474609375,4.2451171875t-0.54052734375,4.33740234375t-0.32958984375,2.93994140625q-0.052734375,0.369140625-0.54052734375,0.69873046875t-1.0546875,0.35595703125t-1.001953125-0.35595703125t-0.43505859375-1.35791015625z M160.75256835938,110.4150390625q2.056640625-0.474609375,4.12646484375-0.5537109375t4.17919921875-0.1845703125q-0.10546875-0.6591796875-0.052734375-1.35791015625t0.052734375-1.41064453125q0-1.5556640625-0.0791015625-3.6123046875t-0.2373046875-4.166015625t-0.40869140625-4.15283203125t-0.56689453125-3.638671875t-0.67236328125-2.54443359375t-0.77783203125-0.94921875q-0.8173828125,0.052734375-1.54248046875,1.41064453125t-1.318359375,3.4541015625t-1.0810546875,4.693359375t-0.8173828125,5.07568359375t-0.54052734375,4.6142578125t-0.263671875,3.322265625z M182.391328125,118.5888671875q0-5.7216796875,0.51416015625-11.45654296875t2.14892578125-11.29833984375q0.474609375-1.6611328125,1.2392578125-3.28271484375t1.8720703125-2.88720703125t2.63671875-2.056640625t3.638671875-0.791015625l0.5537109375,0.052734375q2.267578125,0.31640625,3.3486328125,1.83251953125t1.0810546875,3.78369140625q0,0.6064453125-0.14501953125,1.51611328125t-0.46142578125,1.75341796875t-0.85693359375,1.43701171875t-1.35791015625,0.59326171875q-0.369140625-0.052734375-0.67236328125-0.1318359375t-0.56689453125-0.3427734375q0.421875-0.9228515625,0.75146484375-1.9248046875t0.32958984375-2.2939453125q0-0.474609375-0.0791015625-1.212890625t-0.30322265625-1.46337890625t-0.59326171875-1.265625t-1.0283203125-0.54052734375q-1.6611328125,0-2.794921875,1.85888671875t-1.8984375,4.74609375t-1.1337890625,6.380859375t-0.56689453125,6.75t-0.22412109375,5.8798828125t-0.0263671875,3.70458984375q0,1.265625-0.0263671875,2.794921875l0,0.3427734375q0.0263671875,1.3447265625,0.1845703125,2.5576171875q0.2109375,1.37109375,0.8173828125,2.373046875t1.8984375,1.16015625q0.3955078125,0.052734375,0.7646484375,0.052734375q1.529296875,0,2.7685546875-0.8701171875q1.529296875-1.0810546875,2.7158203125-2.80810546875t2.109375-3.796875t1.70068359375-3.91552734375t1.51611328125-3.05859375t1.529296875-1.212890625q0.263671875,0,0.791015625,0.10546875t0.52734375,0.5009765625q0,0.10546875-0.052734375,0.2900390625t-0.1318359375,0.2900390625q-0.7119140625,2.794921875-1.80615234375,5.80078125t-2.794921875,5.47119140625t-4.166015625,4.02099609375t-5.91943359375,1.5556640625q-2.478515625,0-4.02099609375-0.93603515625t-2.373046875-2.5048828125t-1.1337890625-3.54638671875t-0.30322265625-4.0078125z M210.38458007812,95.29345703125q-0.052734375-0.69873046875,0.11865234375-1.318359375t0.64599609375-1.0283203125t1.6083984375-0.40869140625q0.263671875,0,0.64599609375,0.052734375t0.7646484375,0.17138671875t0.61962890625,0.32958984375t0.2373046875,0.580078125q0,0.9755859375,0.06591796875,2.57080078125t0.17138671875,3.322265625t0.19775390625,3.375t0.17138671875,2.67626953125q2.056640625-0.10546875,4.1396484375-0.10546875t4.11328125-0.10546875l3.638671875-0.10546875l0-2.6103515625q0-4.376953125-0.17138671875-8.76708984375t-0.59326171875-8.76708984375q0-0.31640625,0.263671875-0.51416015625t0.61962890625-0.30322265625t0.73828125-0.1318359375t0.59326171875-0.0263671875q0.6064453125,0,1.30517578125,0.1845703125t0.80419921875,0.791015625l0.158203125,1.1337890625q0.6591796875,4.74609375,0.896484375,9.38671875t0.3427734375,9.28125q0.31640625,0.052734375,0.67236328125,0.17138671875t0.72509765625,0.22412109375q0.263671875,0.10546875,0.75146484375,0.31640625t0.48779296875,0.6591796875q0,0.421875-0.369140625,0.6591796875t-0.83056640625,0.35595703125t-0.896484375,0.14501953125t-0.54052734375,0.0263671875q0.052734375,1.951171875,0.052734375,3.88916015625l0,3.88916015625l0,8.5166015625l0,4.74609375q0,0.31640625-0.30322265625,0.56689453125t-0.72509765625,0.40869140625t-0.88330078125,0.2109375t-0.83056640625,0.052734375t-0.8701171875-0.052734375t-0.896484375-0.2109375t-0.69873046875-0.3955078125t-0.30322265625-0.580078125l0-1.1337890625q0.10546875-5.009765625,0.2373046875-9.92724609375t0.263671875-9.87451171875q-2.8740234375,0.10546875-5.84033203125,0.1318359375t-5.89306640625,0.1318359375q0.31640625,3.7177734375,0.72509765625,7.42236328125t0.85693359375,7.42236328125q0,0.31640625-0.30322265625,0.56689453125t-0.7119140625,0.40869140625t-0.8701171875,0.2109375t-0.83056640625,0.052734375q-0.7646484375,0-1.67431640625-0.263671875t-1.01513671875-0.9755859375q-0.31640625-2.794921875-0.59326171875-6.169921875t-0.48779296875-6.89501953125t-0.32958984375-6.89501953125t-0.11865234375-6.1171875q0-0.6591796875-0.052734375-1.35791015625z M250.78807617187,90.876953125q0-1.2392578125,0.30322265625-1.80615234375t0.8701171875-0.791015625t1.37109375-0.17138671875t1.88525390625,0.052734375q2.7421875,0,5.537109375,0.84375t5.0361328125,2.46533203125t3.6123046875,3.99462890625t1.37109375,5.4580078125q0,2.056640625-0.59326171875,3.88916015625t-1.67431640625,3.427734375t-2.53125,2.91357421875t-3.1904296875,2.2939453125q0.7119140625,0.7119140625,1.845703125,2.51806640625t2.2412109375,3.849609375t1.96435546875,3.96826171875t1.01513671875,2.900390625l-0.31640625,0.474609375q-0.7119140625,0.421875-1.7138671875,0.4482421875q-0.474609375,0-1.2392578125-0.11865234375t-0.9755859375-0.69873046875q-1.0810546875-3.0322265625-2.35986328125-6.2490234375t-3.15087890625-5.80078125l0-0.052734375q-0.6591796875,0.263671875-1.30517578125,0.51416015625t-1.30517578125,0.46142578125q0.2109375,2.9267578125,0.43505859375,5.76123046875t0.22412109375,5.73486328125q0,0.369140625-0.35595703125,0.59326171875t-0.80419921875,0.35595703125t-0.90966796875,0.1845703125t-0.75146484375,0.052734375q-0.263671875,0-0.75146484375-0.052734375t-0.93603515625-0.1845703125t-0.77783203125-0.38232421875t-0.32958984375-0.67236328125q0-2.9267578125-0.1318359375-5.84033203125t-0.2900390625-5.81396484375q-0.8173828125-0.52734375-0.8173828125-1.37109375q0-0.6591796875,0.6328125-0.896484375q-0.31640625-5.5634765625-0.72509765625-11.1005859375t-0.40869140625-11.1533203125z M255.56053710937,90.0595703125q0.369140625,5.7216796875,0.83056640625,11.3115234375t0.88330078125,11.3115234375q1.845703125-0.52734375,3.44091796875-1.83251953125t2.75537109375-2.93994140625t1.80615234375-3.5595703125t0.64599609375-3.8232421875q0-2.109375-0.84375-4.04736328125t-2.2412109375-3.38818359375q-1.423828125-1.4501953125-3.26953125-2.267578125q-1.634765625-0.7119140625-3.427734375-0.7119140625l-0.474609375,0z M276.1709765625,124.15234375q0.052734375-1.107421875,0.052734375-2.162109375q0-3.8232421875,0.27685546875-7.6201171875t0.38232421875-7.6201171875q0.158203125-4.376953125,0.2900390625-8.6748046875t0.52734375-8.6484375q0.10546875-1.0810546875,0.61962890625-1.41064453125t1.54248046875-0.32958984375q0.474609375,0,1.265625,0.1845703125t0.791015625,0.896484375q0.369140625,0.052734375,0.73828125,0.052734375q0.5537109375,0,1.1337890625-0.10546875q0.94921875-0.158203125,1.93798828125-0.35595703125t1.96435546875-0.38232421875t1.8720703125-0.1845703125q0.2109375,0,0.59326171875,0.0263671875t0.7646484375,0.158203125t0.64599609375,0.32958984375t0.263671875,0.51416015625t-0.61962890625,0.56689453125t-1.62158203125,0.43505859375t-2.162109375,0.31640625t-2.267578125,0.22412109375t-1.96435546875,0.14501953125t-1.22607421875,0.052734375l-0.052734375,9.9140625l0.052734375,4.9306640625q0.8173828125,0,2.4521484375-0.052734375q0.6591796875-0.0263671875,1.318359375-0.0263671875q1.001953125,0,2.056640625,0.052734375q1.740234375,0.0791015625,3.1376953125,0.31640625t1.7666015625,0.84375q0,0.369140625-0.38232421875,0.59326171875t-0.85693359375,0.32958984375t-0.96240234375,0.1318359375t-0.69873046875,0.0263671875q-1.951171875,0-3.9287109375-0.0791015625t-3.90234375-0.31640625q0,3.2431640625-0.17138671875,6.43359375t-0.17138671875,6.43359375q0,1.3974609375,0.0263671875,2.75537109375t0.31640625,2.70263671875q0.7119140625-0.052734375,1.54248046875-0.1318359375t1.6875-0.19775390625t1.64794921875-0.19775390625t1.37109375-0.0791015625q0.31640625,0,0.85693359375,0.0791015625t1.107421875,0.263671875t0.9755859375,0.46142578125t0.40869140625,0.64599609375q0,0.421875-0.77783203125,0.75146484375t-1.99072265625,0.52734375t-2.64990234375,0.27685546875t-2.78173828125,0.10546875t-2.42578125,0.0263671875l-1.529296875,0q-1.4501953125,0-2.12255859375-0.54052734375t-0.93603515625-1.41064453125q-0.2109375-0.7119140625-0.1845703125-1.6083984375l0-0.369140625z M298.09977539063,121.990234375q0-0.9228515625,0.6328125-1.17333984375t1.37109375-0.25048828125q1.2919921875,0,2.1884765625,1.16015625t1.70068359375,2.54443359375t1.59521484375,2.54443359375t1.8720703125,1.16015625q0.8173828125,0,1.48974609375-0.40869140625t1.16015625-1.0283203125t0.75146484375-1.3974609375t0.263671875-1.54248046875q0-2.00390625-0.80419921875-4.1396484375t-2.056640625-4.4033203125t-2.64990234375-4.640625t-2.63671875-4.8251953125t-2.056640625-4.99658203125t-0.8173828125-5.12841796875q0-3.8759765625,2.3203125-6.01171875t6.1171875-2.1357421875q1.2919921875,0,2.6103515625,0.369140625t2.42578125,1.107421875t1.80615234375,1.8193359375t0.69873046875,2.53125q0,0.474609375-0.69873046875,0.61962890625t-1.01513671875,0.14501953125q-0.474609375,0-1.0283203125-0.11865234375t-0.7119140625-0.64599609375t-0.4482421875-1.212890625t-0.72509765625-1.27880859375t-1.0283203125-1.0283203125t-1.30517578125-0.43505859375q-1.1865234375,0-2.01708984375,0.48779296875t-1.3447265625,1.30517578125t-0.7646484375,1.83251953125t-0.25048828125,2.09619140625q0,2.53125,0.8701171875,5.10205078125t2.162109375,5.115234375t2.80810546875,5.02294921875t2.80810546875,4.8251953125t2.162109375,4.587890625t0.8701171875,4.2451171875q0,1.79296875-0.84375,3.0322265625t-2.1357421875,2.01708984375t-2.86083984375,1.1337890625t-3.07177734375,0.35595703125q-1.6083984375,0-3.2958984375-0.64599609375t-3.0322265625-1.77978515625t-2.21484375-2.64990234375t-0.8701171875-3.28271484375z M321.82154296875,108.3583984375q0-1.5556640625,0.17138671875-3.7705078125t0.6328125-4.6142578125t1.2392578125-4.7724609375t1.99072265625-4.1923828125t2.900390625-2.8740234375q1.3974609375-0.8701171875,3.216796875-0.8701171875q0.369140625,0,0.7646484375,0.052734375q4.587890625,0.421875,7.05322265625,2.09619140625t3.59912109375,4.2451171875t1.318359375,5.853515625t0.1845703125,6.92138671875q0,2.9267578125-0.54052734375,6.36767578125t-1.91162109375,6.42041015625t-3.78369140625,4.97021484375t-6.13037109375,1.99072265625q-2.267578125,0-3.96826171875-0.83056640625t-2.88720703125-2.21484375t-1.951171875-3.216796875t-1.16015625-3.796875t-0.56689453125-3.96826171875t-0.17138671875-3.796875z M327.17408203125,107.171875q0,1.1337890625,0.0263671875,2.78173828125t0.22412109375,3.46728515625t0.51416015625,3.62548828125t0.93603515625,3.28271484375t1.56884765625,2.42578125t2.2939453125,1.001953125l0.1318359375,0q1.212890625,0,2.162109375-0.9228515625q1.001953125-0.9755859375,1.77978515625-2.3466796875t1.3447265625-2.88720703125t1.01513671875-2.59716796875l-0.10546875,0.2373046875q0.7646484375-2.42578125,1.0283203125-4.97021484375t0.263671875-5.02294921875q0-1.1865234375-0.158203125-2.86083984375t-0.51416015625-3.49365234375t-0.9228515625-3.59912109375t-1.43701171875-3.09814453125t-2.0302734375-2.00390625q-0.84375-0.5009765625-1.8720703125-0.52734375q-0.3955078125,0-0.791015625,0.0791015625q-1.3447265625,0.263671875-2.2939453125,1.318359375t-1.54248046875,2.59716796875t-0.90966796875,3.375t-0.48779296875,3.69140625t-0.19775390625,3.5595703125t-0.0263671875,2.88720703125z M339.06568359375,115.29296875l0-0.052734375l0,0.052734375z M350.34213867188,90.876953125q0-1.2392578125,0.30322265625-1.80615234375t0.8701171875-0.791015625t1.37109375-0.17138671875t1.88525390625,0.052734375q2.7421875,0,5.537109375,0.84375t5.0361328125,2.46533203125t3.6123046875,3.99462890625t1.37109375,5.4580078125q0,2.056640625-0.59326171875,3.88916015625t-1.67431640625,3.427734375t-2.53125,2.91357421875t-3.1904296875,2.2939453125q0.7119140625,0.7119140625,1.845703125,2.51806640625t2.2412109375,3.849609375t1.96435546875,3.96826171875t1.01513671875,2.900390625l-0.31640625,0.474609375q-0.7119140625,0.421875-1.7138671875,0.4482421875q-0.474609375,0-1.2392578125-0.11865234375t-0.9755859375-0.69873046875q-1.0810546875-3.0322265625-2.35986328125-6.2490234375t-3.15087890625-5.80078125l0-0.052734375q-0.6591796875,0.263671875-1.30517578125,0.51416015625t-1.30517578125,0.46142578125q0.2109375,2.9267578125,0.43505859375,5.76123046875t0.22412109375,5.73486328125q0,0.369140625-0.35595703125,0.59326171875t-0.80419921875,0.35595703125t-0.90966796875,0.1845703125t-0.75146484375,0.052734375q-0.263671875,0-0.75146484375-0.052734375t-0.93603515625-0.1845703125t-0.77783203125-0.38232421875t-0.32958984375-0.67236328125q0-2.9267578125-0.1318359375-5.84033203125t-0.2900390625-5.81396484375q-0.8173828125-0.52734375-0.8173828125-1.37109375q0-0.6591796875,0.6328125-0.896484375q-0.31640625-5.5634765625-0.72509765625-11.1005859375t-0.40869140625-11.1533203125z M355.11459960938,90.0595703125q0.369140625,5.7216796875,0.83056640625,11.3115234375t0.88330078125,11.3115234375q1.845703125-0.52734375,3.44091796875-1.83251953125t2.75537109375-2.93994140625t1.80615234375-3.5595703125t0.64599609375-3.8232421875q0-2.109375-0.84375-4.04736328125t-2.2412109375-3.38818359375q-1.423828125-1.4501953125-3.26953125-2.267578125q-1.634765625-0.7119140625-3.427734375-0.7119140625l-0.474609375,0z M374.116640625,89.4794921875q0-0.369140625,0.51416015625-0.56689453125t0.67236328125-0.19775390625l0.9755859375-0.158203125q0.9755859375-0.158203125,1.9775390625-0.27685546875t1.951171875-0.22412109375q3.3486328125-0.421875,6.697265625-0.83056640625t6.75-0.40869140625q0.263671875,0,0.72509765625,0.0263671875t0.9228515625,0.14501953125t0.791015625,0.32958984375t0.32958984375,0.580078125q0,0.263671875-0.25048828125,0.46142578125t-0.59326171875,0.30322265625t-0.69873046875,0.1318359375t-0.56689453125,0.0263671875l-0.46142578125,0t-0.46142578125-0.10546875q-1.3974609375,0-2.75537109375,0.1318359375t-2.75537109375,0.2373046875q0.369140625,0.421875,0.3955078125,1.1865234375t0.052734375,1.318359375q0,9.333984375,0.1318359375,18.5625t0.2373046875,18.6416015625l0,0.052734375q-0.8701171875,0.7646484375-1.48974609375,0.9755859375t-1.25244140625,0.2109375q-0.6064453125,0-1.22607421875-0.22412109375t-1.48974609375-0.96240234375l0-0.052734375l0.2109375-20.6982421875q0-2.056640625-0.052734375-4.53515625t-0.052734375-5.02294921875t0.0791015625-4.91748046875t0.421875-4.1396484375q-1.5556640625,0.158203125-3.2958984375,0.474609375q-1.5029296875,0.263671875-2.8740234375,0.263671875l-0.474609375,0q-0.10546875,0-0.61962890625,0.0263671875t-1.0546875-0.0263671875t-0.9755859375-0.2109375t-0.43505859375-0.52734375z"/><path fill="#" d=""/></svg>
