<?xml version="1.0"?>
<svg version="1.1" xmlns="http://www.w3.org/2000/svg" width="400px" height="200px" style="border: dashed 2px #aaa"><path fill="#" d="M51.38427734375,116.06201171875q0-0.81298828125,0.032958984375-2.384033203125t0.230712890625-3.197021484375t0.648193359375-2.9443359375t1.351318359375-1.69189453125q0.2197265625-0.087890625,0.714111328125-0.15380859375t0.98876953125-0.0439453125t0.87890625,0.17578125t0.384521484375,0.5712890625q0,0.087890625-0.087890625,0.24169921875t-0.46142578125,0.4833984375q-0.68115234375,1.8896484375-0.8349609375,3.75732421875t-0.15380859375,3.84521484375q0,1.16455078125,0.076904296875,2.3291015625t0.252685546875,2.35107421875q0.3515625-0.50537109375,0.714111328125-1.51611328125t0.76904296875-2.208251953125t0.8349609375-2.427978515625t0.966796875-2.2412109375t1.1865234375-1.669921875t1.461181640625-0.6591796875q0.90087890625,0,1.505126953125,1.131591796875t1.12060546875,2.61474609375t0.966796875,3.01025390625t1.087646484375,2.340087890625q0.3076171875-0.3076171875,0.494384765625-0.802001953125t0.296630859375-1.065673828125t0.1318359375-1.131591796875t0.02197265625-0.955810546875q0-0.98876953125-0.296630859375-2.142333984375t-0.626220703125-2.164306640625t-0.626220703125-1.702880859375t-0.296630859375-0.802001953125q0-0.17578125,0.186767578125-0.28564453125t0.428466796875-0.17578125t0.494384765625-0.087890625t0.384521484375-0.02197265625q0.81298828125,0,1.395263671875,0.90087890625t0.9228515625,2.08740234375t0.494384765625,2.406005859375t0.15380859375,1.900634765625q0,0.85693359375-0.1318359375,1.82373046875t-0.494384765625,1.790771484375t-1.065673828125,1.373291015625t-1.77978515625,0.54931640625q-1.29638671875,0-2.13134765625-0.72509765625t-1.351318359375-1.7578125t-0.81298828125-2.252197265625t-0.560302734375-2.208251953125q-0.50537109375,1.16455078125-0.9228515625,2.9443359375t-1.0546875,3.49365234375t-1.6259765625,2.92236328125t-2.57080078125,1.20849609375t-2.252197265625-0.780029296875t-1.065673828125-2.142333984375l0.0439453125,0.0439453125q-0.263671875-0.98876953125-0.340576171875-1.9775390625t-0.076904296875-1.9775390625z M74.074780273438,113.77685546875q0-2.021484375,0.472412109375-3.966064453125t0.802001953125-3.878173828125q0.087890625-0.50537109375,0.692138671875-0.626220703125t1.021728515625-0.120849609375q0.72509765625,0,1.16455078125,0.2197265625q0.17578125,0.087890625,0.32958984375,0.19775390625t0.15380859375,0.28564453125q0,1.8896484375-0.450439453125,3.69140625t-0.450439453125,3.8232421875q0,0.68115234375,0.098876953125,1.285400390625t0.186767578125,1.197509765625l0.1318359375,0.63720703125q0,0.17578125,0.02197265625,0.3076171875t0.06591796875,0.3076171875q0,0.3955078125-0.560302734375,0.538330078125t-0.977783203125,0.142822265625q-0.63720703125,0-1.175537109375-0.252685546875t-0.845947265625-0.867919921875l-0.3076171875-0.63720703125q-0.263671875-0.50537109375-0.263671875-1.131591796875t-0.10986328125-1.153564453125z M75.481030273438,100.54931640625l0-0.41748046875q0-1.03271484375,0.516357421875-1.845703125t1.549072265625-0.81298828125q0.1318359375,0,0.252685546875,0.02197265625t0.252685546875,0.02197265625q0.263671875,0.0439453125,0.692138671875,0.208740234375t0.428466796875,0.516357421875l0,0.0439453125q-0.087890625,0.17578125-0.10986328125,0.362548828125t-0.10986328125,0.318603515625l0.0439453125-0.0439453125q-0.263671875,0.68115234375-0.428466796875,1.0986328125t-0.362548828125,0.670166015625t-0.494384765625,0.362548828125t-0.845947265625,0.10986328125q-0.087890625,0-0.3076171875-0.02197265625t-0.472412109375-0.087890625t-0.428466796875-0.17578125t-0.17578125-0.32958984375z M83.691552734375,114.4140625l0-0.63720703125q0-0.791015625,0.0439453125-1.494140625q0.0439453125-0.98876953125,0.0439453125-1.6259765625q0-0.3515625,0.0439453125-0.802001953125t0.2197265625-0.714111328125q0.2197265625-0.2197265625,0.516357421875-0.450439453125t0.648193359375-0.230712890625q1.12060546875,0,1.7578125,0.252685546875t0.68115234375,1.043701171875l0.087890625,0.68115234375q0.3955078125-0.94482421875,1.0546875-2.340087890625t1.527099609375-2.65869140625t1.95556640625-2.1533203125t2.296142578125-0.889892578125q1.12060546875,0,1.845703125,1.0546875t1.153564453125,2.691650390625t0.604248046875,3.6474609375t0.24169921875,3.944091796875t0.087890625,3.526611328125t0.15380859375,2.406005859375q0.087890625,0.68115234375,0.296630859375,1.439208984375t0.208740234375,1.395263671875q0,0.17578125-0.252685546875,0.340576171875t-0.538330078125,0.274658203125t-0.582275390625,0.17578125t-0.428466796875,0.06591796875q-0.85693359375,0-1.219482421875-1.285400390625t-0.450439453125-3.218994140625t-0.087890625-4.185791015625t-0.15380859375-4.185791015625t-0.626220703125-3.218994140625t-1.505126953125-1.329345703125q-0.94482421875,0-1.95556640625,1.219482421875t-1.73583984375,3.240966796875q-0.703125,2.021484375-0.966796875,4.59228515625q-0.087890625,0.81298828125-0.087890625,1.6259765625q0,1.77978515625,0.37353515625,3.5595703125q0.0439453125,0.3076171875-0.252685546875,0.46142578125t-0.736083984375,0.24169921875t-0.889892578125,0.10986328125t-0.692138671875,0.02197265625q-0.85693359375,0-1.373291015625-0.604248046875t-0.802001953125-1.549072265625t-0.384521484375-2.120361328125t-0.120849609375-2.318115234375z M103.65744628906,115.205078125q0-1.5380859375,0.340576171875-3.62548828125t1.153564453125-3.955078125t2.142333984375-3.175048828125t3.350830078125-1.307373046875q1.8896484375,0,2.83447265625,1.087646484375t0.94482421875,2.933349609375q0,1.20849609375-0.450439453125,2.647705078125t-1.285400390625,2.724609375t-1.9775390625,2.142333984375t-2.548828125,0.85693359375l-0.5712890625-0.0439453125q0,0.59326171875,0.17578125,1.593017578125t0.516357421875,1.988525390625t0.87890625,1.73583984375t1.307373046875,0.7470703125q1.12060546875,0,2.1533203125-0.90087890625t1.95556640625-1.99951171875t1.7138671875-1.99951171875t1.4501953125-0.90087890625q0.3515625,0,0.72509765625,0.10986328125t0.41748046875,0.615234375q0,0.3076171875-0.164794921875,0.50537109375t-0.296630859375,0.439453125q-0.68115234375,1.16455078125-1.483154296875,2.21923828125t-1.812744140625,1.91162109375t-2.208251953125,1.351318359375t-2.647705078125,0.494384765625q-1.8896484375,0-3.14208984375-0.670166015625t-2.021484375-1.8017578125t-1.109619140625-2.61474609375t-0.340576171875-3.109130859375z M107.59055175781,113.53515625l0.615234375,0.54931640625q0.439453125,0.3955078125,0.87890625,0.17578125t0.791015625-0.802001953125t0.648193359375-1.439208984375t0.52734375-1.7578125t0.340576171875-1.7578125t0.10986328125-1.42822265625l0-0.7470703125t-0.06591796875-0.791015625t-0.230712890625-0.626220703125t-0.516357421875-0.318603515625q-0.10986328125-0.02197265625-0.19775390625-0.02197265625q-0.7470703125,0-1.2744140625,0.94482421875q-0.5712890625,1.0546875-0.9228515625,2.559814453125t-0.50537109375,3.087158203125t-0.19775390625,2.373046875z"/><path fill="#" d=""/></svg>
